<svg version="1.1" class="logo-sygnet" xmlns="http://www.w3.org/2000/svg"
     x="0px" y="0px" viewBox="0 0 63 63" style="enable-background:new 0 0 63 63;" xml:space="preserve">
<path fill="#E30613" class="logo-sygnet__symbol"
      d="M31.5,11.6c-11.1,0-20.1,9-20,20.1c0,11.1,9,20.1,20.1,20s20.1-9,20-20.1C51.5,20.5,42.6,11.6,31.5,11.6	C31.5,11.6,31.5,11.6,31.5,11.6z M14.5,31.6c-0.1-9.4,7.4-17.1,16.8-17.2c0.1,0,0.1,0,0.2,0c9.4,0,17,7.6,17,17c0,0.1,0,0.2,0,0.2	H14.5z"></path>
    <path fill="#ffffff" class="logo-sygnet__bg"
          d="M48.5,31.4v0.2h-34c-0.1-9.4,7.4-17.1,16.8-17.2h0.2C40.9,14.4,48.5,22,48.5,31.4z"></path>
</svg>